<?xml version="1.0" encoding="UTF-8"?>
<svg width="115px" height="34px" viewBox="0 0 115 34" version="1.1" xmlns="http://www.w3.org/2000/svg" xmlns:xlink="http://www.w3.org/1999/xlink">
    <!-- Generator: Sketch 49.1 (51147) - http://www.bohemiancoding.com/sketch -->
    <title>Group 40</title>
    <desc>Created with Sketch.</desc>
    <defs>
        <polygon id="path-1" points="0.00171404202 0.00549235898 11.9918351 0.00549235898 11.9918351 14.9806332 0.00171404202 14.9806332"></polygon>
    </defs>
    <g id="FOREST-Website" stroke="none" stroke-width="1" fill="none" fill-rule="evenodd">
        <g id="Forest2018_Landing" transform="translate(-1025.000000, -3945.000000)">
            <g id="Group-40" transform="translate(1025.000000, 3945.000000)">
                <g id="Group-3" transform="translate(103.000000, 10.000000)">
                    <mask id="mask-2" fill="white">
                        <use xlink:href="#path-1"></use>
                    </mask>
                    <g id="Clip-2"></g>
                    <path d="M11.9918443,14.6731926 C11.8824835,14.8845821 11.7088856,14.9426558 11.4805454,14.9402242 C10.5735557,14.9304979 9.66628763,14.9275611 8.75939072,14.9414242 C8.48168969,14.9456558 8.30113299,14.8446032 8.13956598,14.6190663 C6.68688557,12.5914453 5.22634948,10.5696347 3.76760722,8.54652947 C3.68926701,8.43789789 3.60653505,8.33258211 3.48068969,8.16594 C3.47410206,8.33946632 3.46649381,8.44765579 3.46643196,8.55587684 C3.46572062,10.4398137 3.46596804,12.3237821 3.46590619,14.2076874 C3.46590619,14.2813611 3.4677,14.3550979 3.46541134,14.4287084 C3.45443196,14.7831189 3.27823608,14.9688032 2.92621546,14.9764768 C2.55526701,14.9844979 2.18407113,14.9784347 1.81299897,14.9784663 C1.40066907,14.9784663 0.988308247,14.9826347 0.576071134,14.9771084 C0.195658763,14.9719611 0.0129061856,14.7805295 0.00257628866,14.3917611 C0.0014628866,14.3496663 0.00232886598,14.30754 0.00232886598,14.2654453 C0.00232886598,9.75031895 0.00229793814,5.23519263 0.00232886598,0.720034737 C0.00232886598,0.667424211 0.000658762887,0.614718947 0.00282371134,0.562171579 C0.0168958763,0.223487368 0.186782474,0.0326242105 0.51712268,0.0153505263 C0.7947,0.000824210526 1.07357629,0.0104557895 1.35186495,0.0102347368 C1.84661753,0.00988736842 2.34143196,0.00736105263 2.83615361,0.0110242105 C3.30010206,0.0144347368 3.46541134,0.186824211 3.46559691,0.661518947 C3.46630825,2.35601368 3.46590619,4.05050842 3.46590619,5.74500316 C3.46590619,5.82890842 3.46593711,5.91278211 3.46593711,6.06319263 C3.55355567,5.97657158 3.61052474,5.93109789 3.65459691,5.87504526 C4.64017423,4.62151895 5.62401959,3.36654 6.60894742,2.11244526 C7.0723701,1.52232947 7.54173093,0.936982105 7.99955567,0.342318947 C8.17955567,0.108445263 8.39193711,0.000697894737 8.68853505,0.00565578947 C9.48201959,0.0189189474 10.2758753,0.00631894737 11.0695454,0.0120031579 C11.4494938,0.0147189474 11.6900814,0.302150526 11.598566,0.647434737 C11.5677619,0.763582105 11.4878443,0.871992632 11.412133,0.969097895 C10.4572361,2.19382421 9.49838041,3.41529789 8.54187526,4.63872947 C7.95127732,5.39416105 7.3628134,6.15132947 6.77379278,6.90802421 C6.73596804,6.95656105 6.70173093,7.00794 6.65351443,7.07504526 C6.89156598,7.39538211 7.1254732,7.71357158 7.36290619,8.02904526 C8.8491433,10.0039295 10.3362155,11.9782453 11.8231948,13.9525611 C11.8780608,14.0254137 11.9355866,14.0962137 11.9918443,14.1679295 L11.9918443,14.6731926 Z" id="Fill-1" fill="#324355" mask="url(#mask-2)"></path>
                </g>
                <path d="M17.5810963,13.3495927 C17.5944282,13.3748386 17.6077601,13.4000844 17.6210605,13.4253303 C17.5518857,13.5269118 17.4847546,13.6300042 17.4131901,13.7299174 C16.2604224,15.3388523 15.1071517,16.9474095 13.9539754,18.5560611 C12.7153366,20.2838278 11.4801251,22.0140183 10.2345374,23.736717 C10.0458787,23.9976117 9.95963021,24.2647392 9.97676671,24.5839953 C9.99689031,24.9591889 10.1333849,25.1423 10.5009864,25.2112697 C10.5924859,25.228457 10.6882616,25.227009 10.7820879,25.227009 C14.7321297,25.227733 18.6821714,25.2279219 22.6321818,25.2260961 C22.7457229,25.2260646 22.8615908,25.2139139 22.9724278,25.189392 C23.2983986,25.1172116 23.4331952,24.9559781 23.4575637,24.6266174 C23.459859,24.5952962 23.4591673,24.5637231 23.4591673,24.5322445 C23.4592301,23.8084882 23.4624373,23.0847004 23.4580668,22.3609756 C23.4552998,21.90186 23.2599437,21.7084554 22.8104643,21.7020967 C22.7371075,21.7010579 22.6637507,21.7019393 22.5904253,21.7019393 C20.683526,21.7019079 18.7765951,21.7019079 16.8696958,21.7019079 L16.4783861,21.7019079 C16.6578949,21.4337416 16.7929431,21.2257624 16.9341227,21.0220642 C18.0676786,19.3864354 19.2025236,17.751751 20.3367398,16.1165944 C21.3873802,14.6019065 22.4381778,13.0873129 23.4875604,11.5717436 C23.6424806,11.3479621 23.8127766,11.1305393 23.9354047,10.8895076 C24.1152908,10.5359083 24.1044429,9.97070979 23.570696,9.84287513 C23.4809259,9.82134376 23.3840811,9.82461754 23.2904435,9.82458606 C19.3823154,9.82376762 15.4742187,9.8236417 11.5660906,9.82414536 C11.0150185,9.82420832 10.8016769,10.0320931 10.7987842,10.5783415 C10.7952311,11.2496544 10.7976208,11.9209673 10.7983125,12.5922802 C10.7984068,12.6655625 10.7991615,12.7394742 10.8083429,12.8119695 C10.8468292,13.1154863 11.0376575,13.3084817 11.3368074,13.3426675 C11.4300362,13.3533387 11.5250888,13.3493409 11.6193238,13.3493409 C13.49478,13.3496557 15.3702678,13.3495927 17.2457555,13.3495927 L17.5810963,13.3495927 Z M16.9624215,33.9994377 C13.7030278,33.9994377 10.4436656,33.9980526 7.18430334,33.9999414 C5.12949553,34.001169 3.3827674,33.2603513 1.96399099,31.7828396 C0.951302469,30.7282746 0.32017619,29.4642508 0.112117073,28.0087741 C0.0443257092,27.5343914 0.00775736212,27.0512891 0.00728571534,26.5721217 C0.000588331053,20.0984502 -0.00538586151,13.6247788 0.00807179331,7.15113884 C0.0118135244,5.35811698 0.602346737,3.76463806 1.8021847,2.41316672 C2.9927784,1.0721148 4.48362243,0.300762836 6.25402723,0.0672544765 C6.58446296,0.0236880745 6.92052701,0.00543047835 7.25401273,0.00527308528 C13.7727687,0.0017474805 20.2915246,-0.00564999382 26.8102805,0.00753954549 C28.8540832,0.0116947226 30.6143634,0.754401144 32.0250903,2.24491352 C33.075825,3.35506981 33.7172961,4.67877701 33.8959559,6.20895244 C33.9358886,6.55103054 33.9569555,6.89720086 33.9581818,7.2415769 C33.9643761,8.95177853 33.9560751,10.6620431 33.9621751,12.3722447 C33.9719225,15.1197297 33.9984605,17.8671831 33.9998754,20.614668 C34.0009759,22.7850555 33.9955048,24.9558837 33.9542514,27.1257675 C33.9230284,28.7635369 33.3470534,30.2193598 32.29308,31.4707921 C31.1709066,32.8031874 29.7365029,33.6113379 28.021438,33.9060092 C27.6626091,33.9676758 27.2935927,33.9948103 26.9291984,33.9955658 C23.6069499,34.0021763 20.28467,33.9994377 16.9624215,33.9994377 Z" id="Fill-7" fill="#324355"></path>
                <path d="M81.7049433,10.000009 C82.837697,9.99841074 83.9161115,10.2106359 84.9397778,10.6752568 C85.6386045,10.9924727 86.2596509,11.4262971 86.8237466,11.9361292 C87.0524935,12.1429142 87.0523991,12.3062707 86.8593329,12.5515053 C86.8147163,12.6081806 86.7692815,12.6649481 86.7183405,12.7160604 C86.2432264,13.1928524 85.7687102,13.6702283 85.2900407,14.1436087 C85.0231587,14.4075608 84.8806245,14.4193323 84.590742,14.1840867 C83.8934571,13.6182247 83.0938181,13.277681 82.1960099,13.2002595 C81.0868231,13.1045815 80.0742009,13.3814423 79.2124824,14.0905601 C78.3418281,14.8070543 77.8445001,15.7306409 77.692495,16.8295091 C77.5196605,18.0788252 77.8235762,19.2082748 78.6449571,20.1840186 C79.3475596,21.0186581 80.2577963,21.5002755 81.3657874,21.6128578 C82.5343792,21.7316178 83.5787491,21.4242679 84.5172095,20.7467764 C84.5509079,20.7224035 84.5834108,20.6963403 84.6180847,20.6733812 C84.8802784,20.4996056 85.0645031,20.5080269 85.2865481,20.7323924 C85.6940449,21.1441799 86.0917563,21.5652186 86.4938098,21.9821388 C86.6015442,22.0938605 86.7122993,22.2028467 86.8179886,22.3163203 C87.0584718,22.5743406 87.0521789,22.7910838 86.7964039,23.0327531 C85.790169,23.9835094 84.5908993,24.579922 83.2245846,24.8475008 C81.9511846,25.0968538 80.6853675,25.041623 79.4391213,24.672926 C78.3088533,24.33856 77.308282,23.7850535 76.4391379,22.9984835 C75.1201143,21.8048593 74.3151578,20.3348967 74.0797719,18.6068217 C73.7584249,16.2472039 74.4047058,14.1510158 76.0773905,12.3887942 C77.226663,11.1780506 78.6440761,10.4342022 80.3033883,10.1420046 C80.7643119,10.0608335 81.2374122,10.0455275 81.7049433,10.000009" id="Fill-13" fill="#324355"></path>
                <path d="M51.9868417,16.4687421 C51.4617323,17.6425655 50.9669861,18.7486894 50.4594683,19.8833823 L53.5384995,19.8833823 C53.021096,18.7447015 52.5165563,17.6344652 51.9868417,16.4687421 M54.80077,22.8153084 L49.1861762,22.8153084 C48.9819227,23.2699519 48.746876,23.7099216 48.5841609,24.1758432 C48.3712803,24.7853267 47.9946408,25.0412954 47.3550782,24.9946253 C46.7851146,24.9530335 46.2098705,24.985902 45.6369597,24.9858708 C45.5755577,24.9858708 45.5141558,24.9874286 45.4528152,24.985497 C45.062391,24.9733777 44.9007503,24.719621 45.061869,24.3572582 C45.2675963,23.8944521 45.4826566,23.435883 45.6933266,22.9753511 C46.475833,21.2646974 47.2569271,19.5533272 48.0411221,17.8434524 C48.6960659,16.4152802 49.3555842,14.9892266 50.0114184,13.5614595 C50.4946517,12.5094829 50.9736175,11.4555123 51.4578026,10.404003 C51.6250614,10.0407368 51.853753,9.92306472 52.2229629,10.0484944 C52.3400257,10.088248 52.455799,10.2219026 52.5119511,10.3416621 C52.9463085,11.2679598 53.3647627,12.2018905 53.7902782,13.1324564 C54.3362029,14.3262813 54.8845836,15.5189535 55.4310302,16.7124981 C56.0333833,18.028201 56.6341092,19.3446828 57.2368307,20.6602299 C57.7922113,21.8724362 58.3492804,23.0838637 58.9054593,24.2957273 C58.9313095,24.3520554 58.9621947,24.4071372 58.9796021,24.4661758 C59.0560475,24.7254781 58.9117223,24.9498557 58.645422,24.9817895 C58.5545164,24.9926937 58.4614618,24.9857462 58.3694203,24.9857773 C57.7044065,24.9859954 57.0389937,24.9710099 56.3745939,24.9912918 C55.9541134,25.0041276 55.7018435,24.8073843 55.5402336,24.4412207 C55.3190945,23.940094 55.0969116,23.4393723 54.8741146,22.9389622 C54.8575054,22.9016386 54.8324534,22.8682094 54.80077,22.8153084" id="Fill-15" fill="#324355"></path>
            </g>
        </g>
    </g>
</svg>