<?xml version="1.0" encoding="UTF-8"?>
<svg width="60px" height="30px" viewBox="0 0 60 30" version="1.1" xmlns="http://www.w3.org/2000/svg" xmlns:xlink="http://www.w3.org/1999/xlink">
    <!-- Generator: Sketch 49.1 (51147) - http://www.bohemiancoding.com/sketch -->
    <title>logo-oyst-white</title>
    <desc>Created with Sketch.</desc>
    <defs></defs>
    <g id="FOREST-Website" stroke="none" stroke-width="1" fill="none" fill-rule="evenodd">
        <g id="Forest2018_Landing" transform="translate(-1054.000000, -3945.000000)" fill="#324355" fill-rule="nonzero">
            <g id="Group-60" transform="translate(-455.000000, 3558.000000)">
                <g id="Group-15" transform="translate(1445.000000, 344.000000)">
                    <g id="logo-oyst-white" transform="translate(64.000000, 43.000000)">
                        <path d="M30.4713877,6 L26.0596446,18.2915131 L21.6479014,6 L18,6 L24.3141118,22.621947 L21.3518297,30 L24.8659708,30 L34,6 L30.4713877,6 Z M60,9.16704327 L60,6.00910593 L56.0032071,6.00910593 L56.0032071,0 L52.6838235,0 L52.6838235,6.00910593 L50,6.00910593 L50,9.16704327 L52.6838235,9.16704327 L52.6838235,19.240228 C52.6838235,22.5762369 54.0879224,24 57.3775814,24 C58.2133917,24 59.2052566,23.8963947 59.6448686,23.8000742 L59.9706665,23.7288456 L59.9706665,20.5069644 L59.4543961,20.6684429 C59.0531133,20.7939024 58.478567,20.874844 57.9904568,20.874844 C56.4862328,20.874844 56.0035982,20.3309163 56.0035982,18.6327611 L56.0035982,9.16704327 L60,9.16704327 Z M8.99941334,6 C3.98813637,6 0,10.028347 0,15.4997983 C0,20.9712496 3.98774526,25 8.99941334,25 C14.0106903,25 18,20.9708462 18,15.4997983 C18,10.0287504 14.0106903,6.00040344 8.99980445,6.00040344 L8.99941334,6 Z M8.99979601,9 C10.6574304,9 12.1792065,9.60380634 13.285248,10.7000334 C14.3908816,11.7966611 15,13.323606 15,14.9991987 C15,16.6755927 14.3908816,18.2025376 13.28484,19.2995659 C12.1792065,20.3961937 10.6574304,21 8.99979601,21 C7.34175365,21 5.82038554,20.3961937 4.71475198,19.2995659 C3.60911842,18.2029382 3,16.6755927 3,14.9995993 C3,13.323606 3.60911842,11.7966611 4.714344,10.7000334 C5.81997756,9.60380634 7.34175365,9 8.99979601,9 Z M42.5502849,13.0957684 C39.8841211,12.4702199 39.0710135,11.9423141 39.0710135,10.8341088 C39.0710135,9.71836204 40.1309085,9.05193058 41.9073081,9.05193058 C43.4678176,9.05193058 45.0205051,9.71002668 46.2798637,10.9027762 L46.6162141,11.2215043 L48.5103364,8.7625747 L48.2275673,8.4894926 C46.437479,6.76844032 44.451056,6 41.7848922,6 C38.2184043,6 35.7270645,8.02707888 35.7270645,10.9277823 C35.7270645,14.5175417 38.4804447,15.4896029 41.8107051,16.3124214 C44.7346072,17.0110036 45.6267181,17.5984476 45.6267181,18.8237447 C45.6267181,20.605923 43.7525422,20.9802201 42.1810817,20.9802201 C40.3143368,20.9802201 38.7718181,20.2804472 37.465918,18.8408124 L37.1667225,18.5113674 L35,20.7309533 L35.2460051,21.0349953 C36.7439379,22.8913978 39.3252319,24 42.1509666,24 C46.3115432,24 49,21.9320382 49,18.7300712 C49,15.00258 46.2071181,14.0082913 42.5502849,13.0961653 L42.5502849,13.0957684 Z" id="Shape"></path>
                    </g>
                </g>
            </g>
        </g>
    </g>
</svg>